<svg xmlns="http://www.w3.org/2000/svg" viewBox="0 0 640 420" width="640" height="420" role="img" aria-label="Layanan purna jual, garansi, dan ketersediaan sparepart set meja kursi Zeco">
  <defs>
    <linearGradient id="f4Bg" x1="0" y1="0" x2="1" y2="1">
      <stop offset="0" stop-color="#F1F7FF"/>
      <stop offset="1" stop-color="#FFFFFF"/>
    </linearGradient>
    <linearGradient id="f4Blue" x1="0" y1="0" x2="0" y2="1">
      <stop offset="0" stop-color="#3B82F6"/>
      <stop offset="1" stop-color="#1D4ED8"/>
    </linearGradient>
  </defs>

  <rect width="640" height="420" fill="url(#f4Bg)"/>
  <circle cx="150" cy="98" r="120" fill="#DBEAFE" opacity=".45"/>
  <circle cx="552" cy="346" r="106" fill="#EFF6FF"/>

  <ellipse cx="320" cy="368" rx="212" ry="16" fill="#1E3A8A" opacity=".06"/>

  <!-- Paket sparepart -->
  <g>
    <rect x="80" y="196" width="196" height="150" rx="20" fill="#FFFFFF" stroke="#DCE7F7" stroke-width="2"/>
    <rect x="80" y="196" width="196" height="44" rx="20" fill="#E8F1FE"/>
    <rect x="80" y="226" width="196" height="14" fill="#E8F1FE"/>
    <rect x="160" y="196" width="36" height="150" fill="#BFD7FA"/>
    <rect x="106" y="262" width="42" height="10" rx="5" fill="#CBD5E1"/>
    <rect x="214" y="262" width="42" height="10" rx="5" fill="#CBD5E1"/>
    <rect x="106" y="288" width="66" height="10" rx="5" fill="#E2E8F0"/>
    <rect x="214" y="288" width="42" height="10" rx="5" fill="#E2E8F0"/>
  </g>

  <!-- Perisai garansi -->
  <g>
    <path d="M470 104l96 34v82c0 58-44 98-96 118-52-20-96-60-96-118v-82z" fill="url(#f4Blue)"/>
    <path d="M430 220l26 28 46-58" fill="none" stroke="#FFFFFF" stroke-width="15" stroke-linecap="round" stroke-linejoin="round"/>
  </g>

  <g fill="#93C5FD" opacity=".7">
    <circle cx="336" cy="140" r="6"/>
    <circle cx="362" cy="166" r="6"/>
    <circle cx="310" cy="166" r="6"/>
  </g>
</svg>
