<svg xmlns="http://www.w3.org/2000/svg" viewBox="0 0 720 520" width="720" height="520" role="img" aria-label="Set meja dan kursi aula serbaguna Zeco 08">
  <defs>
    <linearGradient id="p8Bg" x1="0" y1="0" x2="1" y2="1">
      <stop offset="0" stop-color="#F2F7FF"/>
      <stop offset="1" stop-color="#FFFFFF"/>
    </linearGradient>
    <linearGradient id="p8Top" x1="0" y1="0" x2="1" y2="0">
      <stop offset="0" stop-color="#FFFFFF"/>
      <stop offset="1" stop-color="#E8F1FE"/>
    </linearGradient>
    <linearGradient id="p8Frame" x1="0" y1="0" x2="0" y2="1">
      <stop offset="0" stop-color="#3B82F6"/>
      <stop offset="1" stop-color="#1D4ED8"/>
    </linearGradient>
  </defs>

  <rect width="720" height="520" fill="url(#p8Bg)"/>
  <circle cx="126" cy="126" r="128" fill="#DBEAFE" opacity=".4"/>
  <circle cx="632" cy="446" r="118" fill="#EFF6FF"/>
  <path d="M0 428h720" stroke="#E6ECF5" stroke-width="2"/>
  <ellipse cx="356" cy="438" rx="254" ry="20" fill="#1E3A8A" opacity=".07"/>

  <g>
    <rect x="118" y="252" width="272" height="11" rx="5.5" fill="#E8F1FE" stroke="#DCE7F7" stroke-width="2"/>
    <rect x="98" y="263" width="312" height="25" rx="12" fill="url(#p8Top)" stroke="#DCE7F7" stroke-width="2"/>
    <rect x="98" y="284" width="312" height="10" rx="5" fill="#E3EDFC"/>
    <path d="M150 288h20l16 140h-22z" fill="url(#p8Frame)"/>
    <path d="M330 288h20l14 140h-22z" fill="url(#p8Frame)"/>
    <rect x="164" y="368" width="180" height="10" rx="5" fill="#BFD7FA"/>
    <rect x="148" y="419" width="40" height="9" rx="4.5" fill="#1E3A8A" opacity=".16"/>
    <rect x="340" y="419" width="40" height="9" rx="4.5" fill="#1E3A8A" opacity=".16"/>
    <path d="M142 252l32-28 32 28z" fill="#FFFFFF" stroke="#DCE7F7" stroke-width="2" stroke-linejoin="round"/>
    <path d="M166 240h20" stroke="#93C5FD" stroke-width="4" stroke-linecap="round"/>
    <rect x="272" y="242" width="88" height="10" rx="5" fill="#FFFFFF" stroke="#DCE7F7" stroke-width="2"/>
    <rect x="280" y="232" width="72" height="10" rx="5" fill="#FFFFFF" stroke="#DCE7F7" stroke-width="2"/>
    <rect x="288" y="222" width="56" height="10" rx="5" fill="#FFFFFF" stroke="#DCE7F7" stroke-width="2"/>
  </g>

  <g>
    <rect x="512" y="266" width="108" height="18" rx="9" fill="url(#p8Top)" stroke="#DCE7F7" stroke-width="2"/>
    <rect x="506" y="288" width="120" height="18" rx="9" fill="url(#p8Top)" stroke="#DCE7F7" stroke-width="2"/>
    <rect x="500" y="310" width="132" height="18" rx="9" fill="url(#p8Top)" stroke="#DCE7F7" stroke-width="2"/>
    <rect x="494" y="332" width="144" height="18" rx="9" fill="url(#p8Top)" stroke="#DCE7F7" stroke-width="2"/>
    <rect x="502" y="350" width="14" height="78" rx="7" fill="url(#p8Frame)"/>
    <rect x="612" y="350" width="14" height="78" rx="7" fill="url(#p8Frame)"/>
    <rect x="516" y="392" width="96" height="9" rx="4.5" fill="#BFD7FA"/>
    <rect x="497" y="419" width="28" height="9" rx="4.5" fill="#1E3A8A" opacity=".16"/>
    <rect x="607" y="419" width="28" height="9" rx="4.5" fill="#1E3A8A" opacity=".16"/>
  </g>
</svg>
